<svg xmlns="http://www.w3.org/2000/svg" style="background-color: #002b36" viewBox="0 0 1440 320"><path fill="rgba(238,232,213,.125)" fill-opacity="1" d="M0,64L40,53.3C80,43,160,21,240,58.7C320,96,400,192,480,224C560,256,640,224,720,202.7C800,181,880,171,960,186.7C1040,203,1120,245,1200,245.3C1280,245,1360,203,1400,181.3L1440,160L1440,320L1400,320C1360,320,1280,320,1200,320C1120,320,1040,320,960,320C880,320,800,320,720,320C640,320,560,320,480,320C400,320,320,320,240,320C160,320,80,320,40,320L0,320Z"><text x="0" y="15" fill="red" transform="rotate(30 20,40)">I love SVG</text></path>
</svg>